<svg xmlns="http://www.w3.org/2000/svg" version="1.1" xmlns:xlink="http://www.w3.org/1999/xlink" width="512" height="512" x="0" y="0" viewBox="0 0 24 24" style="enable-background:new 0 0 512 512" xml:space="preserve" class=""><g><path d="m21.71 20.29-1.01-1.01c.19-.39.3-.82.3-1.29 0-1.65-1.35-3-3-3s-3 1.35-3 3 1.35 3 3 3c.46 0 .89-.11 1.29-.3l1.01 1.01c.2.2.45.29.71.29s.51-.1.71-.29a.996.996 0 0 0 0-1.41zM17 18c0-.55.45-1 1-1s1 .45 1 1c0 .27-.11.52-.29.7h-.01c-.01 0 0 0 0 .01-.18.18-.42.29-.7.29-.55 0-1-.45-1-1zm-3 1c0 .55-.45 1-1 1H5c-1.65 0-3-1.35-3-3v-1.33l5.82-1.59 2.63 1.75a.99.99 0 0 0 1.06.03l4.46-2.68 1.55 1.04A5 5 0 0 0 14 19zm-5.45-6.83 2.48 1.65 4.46-2.68c.33-.2.74-.19 1.06.03l3.36 2.23c.06-.12.09-.26.09-.4V5c0-1.65-1.35-3-3-3H5C3.35 2 2 3.35 2 5v8.6l5.74-1.56c.28-.08.57-.03.81.13zM6 7.5C6 6.67 6.67 6 7.5 6S9 6.67 9 7.5 8.33 9 7.5 9 6 8.33 6 7.5z" fill="#000000" opacity="1" data-original="#000000" class=""></path></g></svg>