<svg width="1000" height="1000" viewBox="0 0 1000 1000" fill="none" xmlns="http://www.w3.org/2000/svg">
<g clip-path="url(#clip0_102_15006)">
<path d="M342.5 782C330.667 781.167 295.833 802.333 436.5 807.167C577.167 812 678.667 805.333 709.167 795.833C739.667 786.167 716.333 780.833 704.333 780.333C692.333 779.833 342.5 782 342.5 782Z" fill="#1C3177"/>
<path d="M618.833 833.667C640.648 833.667 658.333 830.682 658.333 827C658.333 823.318 640.648 820.333 618.833 820.333C597.018 820.333 579.333 823.318 579.333 827C579.333 830.682 597.018 833.667 618.833 833.667Z" fill="#1C3177"/>
<path d="M285.833 797.333C325.874 797.333 358.333 793.155 358.333 788C358.333 782.845 325.874 778.667 285.833 778.667C245.792 778.667 213.333 782.845 213.333 788C213.333 793.155 245.792 797.333 285.833 797.333Z" fill="#1C3177"/>
<path d="M738 822.167C759.815 822.167 777.5 819.182 777.5 815.5C777.5 811.818 759.815 808.833 738 808.833C716.185 808.833 698.5 811.818 698.5 815.5C698.5 819.182 716.185 822.167 738 822.167Z" fill="#1C3177"/>
<path d="M324.166 818.833C339.63 818.833 352.166 816.744 352.166 814.167C352.166 811.589 339.63 809.5 324.166 809.5C308.702 809.5 296.166 811.589 296.166 814.167C296.166 816.744 308.702 818.833 324.166 818.833Z" fill="#1C3177"/>
<path d="M773 778.667C753.666 779.5 757 791.167 800.833 792C839.666 792.667 877.833 791 886.333 785.833C895.333 780.333 873.167 778.167 858.167 778.833C854.833 778.833 773 778.667 773 778.667Z" fill="#1C3177"/>
<path d="M126.166 585.833L146.166 456C147.666 442 159.666 431.333 173.666 431.333H177.333C193.333 431.333 206 444.833 205 460.833L190 552.5C189.833 556.167 192.666 559.333 196.333 559.333H244.666C250 559.333 254.166 555.167 254.333 549.833L261.833 458.167C262 443 274.333 430.833 289.5 430.833H297.333C312.333 430.833 318.333 442.833 318.666 457.833L326.5 772.667C326.666 779.667 321 785.5 313.833 785.5H268.833C262 785.5 256.333 780 256.166 773L254 619.167H155.666C138.166 619 124.333 603.5 126.166 585.833Z" fill="#BECDFC"/>
<path d="M146.166 585.833L160.5 456C162 442 174 431.333 188 431.333C204 431.333 216.666 444.833 215.666 460.833L210 552.5C209.833 556.167 212.666 559.333 216.333 559.333H264.666C270 559.333 274.166 555.167 274.333 549.833L275.5 458.167C275.666 443 288 430.833 303.166 430.833H311C326 430.833 338.333 442.833 338.666 457.833L346.5 772.667C346.666 779.667 341 785.5 333.833 785.5H288.833C282 785.5 276.333 780 276.166 773L274 619.167H175.666C158.166 619 144.333 603.5 146.166 585.833Z" fill="#8EA6F4"/>
<path d="M648.833 585.833L668.833 456C670.333 442 682.333 431.333 696.333 431.333H700C716 431.333 728.667 444.833 727.667 460.833L712.667 552.5C712.5 556.167 715.333 559.333 719 559.333H767.333C772.667 559.333 776.833 555.167 777 549.833L784.5 458.167C784.667 443 797 430.833 812.167 430.833H820C835 430.833 841 442.833 841.333 457.833L849.167 772.667C849.333 779.667 843.667 785.5 836.5 785.5H791.5C784.667 785.5 779 780 778.833 773L776.667 619.167H678.333C660.833 619 646.833 603.5 648.833 585.833Z" fill="#BECDFC"/>
<path d="M668.833 585.833L683.167 456C684.667 442 696.667 431.333 710.667 431.333C726.667 431.333 739.333 444.833 738.333 460.833L732.667 552.5C732.5 556.167 735.333 559.333 739 559.333H787.333C792.667 559.333 796.833 555.167 797 549.833L798.167 458.167C798.333 443 810.667 430.833 825.833 430.833H833.667C848.667 430.833 861 442.833 861.333 457.833L869.167 772.667C869.333 779.667 863.667 785.5 856.5 785.5H811.5C804.667 785.5 799 780 798.833 773L796.667 619.167H698.333C680.833 619 666.833 603.5 668.833 585.833Z" fill="#8EA6F4"/>
<path d="M716.167 768.667C714.334 777.5 706.5 783.667 697.5 783.667H580.5C567.5 783.667 558.167 770.833 562.167 759C562.5 758.167 562.834 757.167 563.334 756.333C563.5 756 563.834 755.5 564 755.167C571.834 742.167 589.334 750.833 590 751.167C590 751 589.667 750.667 589.5 750C588 746.833 584.834 737.667 592.667 734.833C602.334 731.333 611.667 741.5 611.667 741.5C611.667 741.5 617 711.167 639.334 711.167C661.667 711.167 654.667 742 654.667 742C654.667 742 667 722.667 678.5 728.333C689.667 734 681.834 750.667 681.667 751.167C682.334 750.667 700 738.667 712 752.5C716.667 757.833 717.167 763.667 716.167 768.667Z" fill="#FEC272"/>
<path d="M696.334 783.667H580.667C567.667 783.667 558.334 770.833 562.334 759C563.667 762.5 566.001 766.5 570.334 770C581.001 778.833 593.667 772 593.667 772C593.667 772 594.501 756.667 603.667 756.667C612.834 756.667 615.167 762.833 615.167 762.833C615.167 762.833 623.167 747.833 634.334 747.5C645.501 747.167 646.667 762.5 646.667 762.5C646.667 762.5 652.501 756.333 657.834 757.833C663.167 759.333 661.334 768.5 661.334 768.5C661.334 768.5 673.667 762.667 685.834 767.667C694.001 771.167 695.834 779 696.334 783.667Z" fill="#FF8D76"/>
<path d="M716.167 768.667C714.334 777.5 706.501 783.667 697.501 783.667H696.334C696.334 783.667 715.501 767.833 707.501 756.167C699.501 744.667 676.501 756.5 676.001 756.667C676.167 755.833 682.167 736.667 674.501 733.5C666.667 730.167 652.501 750.833 652.501 750.833C652.501 750.833 653.334 719 637.667 717.333C620.834 715.5 614.334 748.667 614.334 748.667C614.334 748.667 603.001 736.167 595.167 738.833C587.501 741.5 590.501 751.5 590.667 752L589.501 750C588.001 746.833 584.834 737.667 592.667 734.833C602.334 731.333 611.667 741.5 611.667 741.5C611.667 741.5 617.001 711.167 639.334 711.167C661.667 711.167 654.667 742 654.667 742C654.667 742 667.001 722.667 678.501 728.333C689.667 734 681.834 750.667 681.667 751.167C682.334 750.667 700.001 738.667 712.001 752.5C716.667 757.833 717.167 763.667 716.167 768.667Z" fill="#FFD29C"/>
<path d="M379.834 783.667C379.834 783.667 376.167 639.833 376.167 557.167C376.167 474.5 419.334 425.333 506.5 425.333C578.334 425.333 609.334 443.333 616.5 560.833C623.667 678.333 626.667 783.667 626.667 783.667H379.834Z" fill="#E1ECFF"/>
<path d="M421.667 783.667C421.667 783.667 418.667 639.833 418.667 557.167C418.667 474.5 455.5 425.333 516.834 425.333C578.167 425.333 617.5 443.333 623.667 560.833C629.834 678.333 632.334 783.667 632.334 783.667H421.667Z" fill="#CDE0FC"/>
<path d="M488.333 644.5C474.833 640.667 465.5 671.167 476.667 678.333C487.833 685.5 504.333 649 488.333 644.5Z" fill="#E1ECFF"/>
<path d="M592.333 612.333C583.333 609.833 577 630.166 584.5 635C592 639.666 603.167 615.333 592.333 612.333Z" fill="#E1ECFF"/>
<path d="M483.833 494.667C474.833 492.167 468.5 512.5 476 517.333C483.5 522 494.667 497.667 483.833 494.667Z" fill="#E1ECFF"/>
<path d="M530.334 524.167C519.834 522 512.667 539.667 521.334 543.833C530 548 542.834 526.833 530.334 524.167Z" fill="#E1ECFF"/>
<path d="M571.5 478.833C558.834 475.333 549.834 504 560.5 510.833C571.167 517.667 586.667 483.167 571.5 478.833Z" fill="#E1ECFF"/>
<path d="M575.501 687.833C557.334 682.667 544.667 723.667 559.667 733.5C574.834 743 597.167 693.833 575.501 687.833Z" fill="#E1ECFF"/>
<path d="M485 642.5C471.5 638.667 462.167 669.167 473.334 676.333C484.5 683.5 501 647 485 642.5Z" fill="#99ADF9"/>
<path d="M589 610.167C580 607.667 573.667 628 581.167 632.833C588.667 637.667 599.834 613.167 589 610.167Z" fill="#99ADF9"/>
<path d="M480.5 492.5C471.5 490 465.167 510.333 472.667 515.167C480.167 520 491.334 495.5 480.5 492.5Z" fill="#99ADF9"/>
<path d="M527.001 522C516.501 519.833 509.334 537.5 518.001 541.667C526.667 545.833 539.501 524.667 527.001 522Z" fill="#99ADF9"/>
<path d="M568.167 476.833C555.501 473.333 546.501 502 557.167 508.833C567.834 515.667 583.334 481 568.167 476.833Z" fill="#99ADF9"/>
<path d="M572.167 685.667C554 680.5 541.333 721.5 556.333 731.333C571.5 741 593.833 691.833 572.167 685.667Z" fill="#99ADF9"/>
<path d="M427.333 504.333C413.833 500.333 404.5 533.167 415.667 540.833C426.833 548.5 443.5 509.167 427.333 504.333Z" fill="#CDE0FC"/>
<path d="M402.5 602.667C391.5 599.333 383.833 626.167 393 632.5C402 638.833 415.667 606.667 402.5 602.667Z" fill="#CDE0FC"/>
<path d="M446.333 446.833C435.333 443.5 427.666 470.333 436.833 476.667C446 483 459.5 450.833 446.333 446.833Z" fill="#CDE0FC"/>
<path d="M486.667 608.333H472.833C472 608.333 471.667 607.667 471.333 606.833L462 588.833L461.5 588.5C460.833 588.5 458.333 588.5 457.667 588.5V606.833C457.667 607.667 457 608.333 456.167 608.333H444C443.167 608.333 442.5 607.667 442.5 606.833V557.833C442.5 554.167 443.667 553.333 446.833 552.833C449.833 552.333 457.333 551.833 462.667 551.833C476.667 551.833 486.167 556.333 486.167 570V571.167C486.167 579.167 481.667 584 477 586L487.833 606.333C488 606.667 488 607 488 607.167C487.833 607.833 487.333 608.333 486.667 608.333ZM470.833 570C470.833 566.5 468.333 564.667 463.333 564.667C462.833 564.667 458 564.833 457.5 564.833V576.833C457.833 576.833 462.5 576.833 463 576.833C468.833 576.833 470.833 574.833 470.833 571.333V570Z" fill="#99ADF9"/>
<path d="M501.666 608.333H501C497.333 608.333 494.333 605.333 494.333 601.667C494.333 598 497.333 595 501 595H501.666C505.333 595 508.333 598 508.333 601.667C508.5 605.333 505.5 608.333 501.666 608.333Z" fill="#99ADF9"/>
<path d="M531 608.333H518.667C517.834 608.333 517.167 607.667 517.167 606.833V554C517.167 553.167 517.834 552.5 518.667 552.5H531C531.834 552.5 532.5 553.167 532.5 554V606.833C532.5 607.667 531.834 608.333 531 608.333Z" fill="#99ADF9"/>
<path d="M548.667 608.333H548C544.334 608.333 541.167 605.333 541.167 601.5C541.167 597.833 544.167 594.833 547.834 594.833H548.5C552.167 594.833 555.334 597.833 555.334 601.667C555.334 605.333 552.334 608.333 548.667 608.333Z" fill="#99ADF9"/>
<path d="M584.5 590.167C582.834 590.167 581.167 590 579.167 590V606.833C579.167 607.667 578.5 608.333 577.667 608.333H565.667C564.834 608.333 564.167 607.833 564.167 607V557.833C564.167 554.167 565.334 553.333 568.5 552.833C572.334 552.167 579 551.833 584.334 551.833C595.5 551.833 607.667 555.667 607.667 570.667V571.333C607.667 586 595.334 590.167 584.5 590.167ZM592.5 570.667C592.5 566.333 589.5 564.667 584.5 564.667C584 564.667 579.667 564.667 579.167 564.667V577.5C579.5 577.5 584 577.5 584.5 577.5C589.834 577.5 592.5 575.5 592.5 571.333V570.667Z" fill="#99ADF9"/>
<path d="M528.5 761.833C525.667 775.833 513 785.667 498.667 785.667H312C291.167 785.667 276.334 765.167 282.667 746.333C283.167 744.833 283.667 743.5 284.5 742C284.834 741.333 285.167 740.667 285.667 740C298.167 719.333 326 733.167 327.167 733.667C327.167 733.5 326.834 732.833 326.334 731.833C324 726.833 318.834 712.167 331.5 707.667C347 702 361.667 718.167 361.667 718.167C361.667 718.167 370.167 669.667 406 669.667C441.834 669.667 430.667 718.833 430.667 718.833C430.667 718.833 450.334 687.833 468.667 697C486.667 706 474 732.5 473.667 733.5C474.834 732.667 502.834 713.667 522.167 735.667C529.167 744.333 530.167 753.5 528.5 761.833Z" fill="#FEC272"/>
<path d="M496.834 785.666H312C291.167 785.666 276.334 765.166 282.667 746.333C284.834 752 288.667 758.333 295.334 764C312.5 778.166 332.667 767 332.667 767C332.667 767 333.834 742.5 348.667 742.5C363.334 742.5 367 752.333 367 752.333C367 752.333 379.834 728.5 397.667 727.833C415.5 727.167 417.334 751.667 417.334 751.667C417.334 751.667 426.5 741.833 435.167 744.333C443.667 746.833 440.667 761.5 440.667 761.5C440.667 761.5 460.334 752.333 479.834 760.333C493.167 765.667 496.167 778.166 496.834 785.666Z" fill="#FF8D76"/>
<path d="M528.501 761.833C525.667 775.833 513.001 785.667 498.667 785.667H496.667C496.667 785.667 527.334 760.5 514.501 741.833C501.834 723.333 465.001 742.333 464.334 742.667C464.667 741.5 474.167 710.833 461.834 705.667C449.334 700.5 426.667 733.167 426.667 733.167C426.667 733.167 427.834 682.333 403.001 679.5C376.167 676.5 365.667 729.5 365.667 729.5C365.667 729.5 347.667 709.667 335.001 713.833C322.834 718 327.667 734 328.001 735L326.001 731.833C323.667 726.833 318.501 712.167 331.167 707.667C346.667 702 361.334 718.167 361.334 718.167C361.334 718.167 369.834 669.667 405.667 669.667C441.501 669.667 430.334 718.833 430.334 718.833C430.334 718.833 450.001 687.833 468.334 697C486.334 706 473.667 732.5 473.334 733.5C474.501 732.667 502.501 713.667 521.834 735.667C529.167 744.333 530.167 753.5 528.501 761.833Z" fill="#FFD29C"/>
<path d="M407.167 308.833C407.167 308.833 409.5 308.667 413.667 308.167C417.833 307.833 423.833 307.333 431 306.833C438.167 306.333 446.667 305.833 455.667 305.5C460.167 305.333 464.833 305.167 469.667 305C474.5 304.833 479.333 304.833 484 304.667C493.667 304.5 503.333 304.333 512.5 304.5C521.5 304.5 530 304.833 537.333 305C544.5 305.333 550.667 305.667 554.833 306C557 306.167 558.667 306.333 559.667 306.333C560.833 306.5 561.5 306.5 561.5 306.5C562.667 306.667 563.333 307.167 563.167 307.833C563 308.333 562 308.833 561 308.833H560.833C560.833 308.833 558.5 308.833 554.333 308.667C550.167 308.5 544.167 308.5 537 308.5C529.833 308.5 521.5 308.5 512.5 308.5C508 308.5 503.333 308.667 498.667 308.667C494 308.667 489.167 308.833 484.333 308.833C474.667 309 465.167 309.167 456.167 309.5C447.167 309.667 438.833 310 431.667 310.167C417.333 310.667 407.667 311 407.667 311C406.5 311 405.5 310.5 405.5 309.833C405.333 309.5 406 308.833 407.167 308.833Z" fill="#E1EAF6"/>
<path d="M366.666 320.5C366.666 320.5 365.833 320.667 364.333 321.167C362.833 321.667 360.666 322.333 358.166 323.5C357 324 355.5 324.833 354.5 325.667C353.833 326 353.5 326.5 353 327C352.666 327.5 352.5 327.833 352.5 328.167C352.5 328.5 352.666 328.667 352.833 329C353 329.167 353.166 329.333 353.5 329.667C353.666 329.833 354 330.167 354.333 330.333C355.666 331.333 357.666 332.333 359.666 333.333C360.833 333.833 361.833 334.333 363.166 334.667L364 335L364.5 335.167H364.666C364.666 335.167 364.333 335 364.5 335.167H364.666C365.333 335.333 366 335.5 366.666 335.833C368 336.333 369.333 336.667 370.833 337.167C372.166 337.5 373.5 337.833 374.833 338.167C380.333 339.5 386.5 340.667 392.833 341.667C399.333 342.5 405.833 343.333 412.833 344C419.666 344.667 426.666 345 433.666 345.5C440.666 345.833 447.666 346.167 454.666 346.333C461.666 346.5 468.5 346.833 475 346.833C481.666 346.833 488.166 347.167 494.166 347.167C500.166 347.167 506 347.333 511.333 347.333C532.666 347.333 546.833 347.333 546.833 347.333C548 347.333 549 348.167 549 349C549 349.833 548.166 350.5 547.166 350.667C547.166 350.667 546.333 350.833 544.666 351C543 351.167 540.5 351.5 537.5 351.833C531.333 352.5 522.5 353.333 511.666 354C506.333 354.333 500.5 354.667 494.333 354.833C491.333 355 488.166 355 484.833 355.167C481.5 355.333 478.333 355.333 475 355.333C468.333 355.333 461.333 355.5 454.333 355.333C447.333 355.167 440.166 355 432.833 354.667C425.666 354.333 418.5 353.667 411.333 353C404.333 352.333 397.333 351.167 390.666 350C387.333 349.333 384 348.667 380.833 348C377.666 347.167 374.5 346.5 371.5 345.5C370 345 368.5 344.5 367 344.167C365.666 343.667 364.333 343.167 363 342.667C362.333 342.333 361.666 342.167 361 341.833L360.833 341.667L360.5 341.5H360.333L359.833 341.333L358.833 340.833C357.5 340.333 356.333 339.667 355 339C352.5 337.667 350.166 336.333 348.166 334.5C347.666 334 347.166 333.5 346.666 333C346.166 332.5 345.833 331.833 345.5 331.167C344.833 329.833 344.666 328.167 345 326.667C345.5 325.167 346.333 324.167 347.333 323.167C348.333 322.333 349.166 321.667 350.166 321.167C352 320.167 353.833 319.5 355.333 319C358.5 318 361 317.5 362.666 317.167C364.333 316.833 365.333 316.833 365.333 316.833C366.5 316.667 367.5 317.333 367.666 318.333C368.333 319.5 367.666 320.333 366.666 320.5Z" fill="#E1EAF6"/>
<path d="M709.167 346C706.833 351.333 704.5 356.333 702.167 361C682.667 398.667 660 412 651 410.167C641 408 645.833 397.667 639 393.333C632 389 612.833 405 600.167 397C587.667 389 592.167 375.833 580 374.833C568 373.667 555 378.5 542.5 371.333C530 364.167 534.667 358.5 558.167 340C581.833 321.5 595.333 291.167 601.5 258C606.333 232 617.333 217.5 632 211.833C646.833 206.167 665.5 209.833 685 220.167C723.667 240.667 730 296.833 709.167 346Z" fill="#FF97C9"/>
<path d="M702.167 360.833C682.667 398.5 660 411.833 651 410C641 407.833 645.833 397.5 639 393.167C632 388.833 612.833 404.833 600.167 396.833C587.667 388.833 592.167 375.667 580 374.667C568 373.5 555 378.333 542.5 371.167C530 364 534.667 358.333 558.167 339.833C581.833 321.333 595.333 291 601.5 257.833C606.333 231.833 617.333 217.333 632 211.667C628.333 219.5 620.833 237.5 613.667 265.333C604.667 299.667 601.167 318.833 606.667 336.5C612.167 354.167 623.667 358 640.5 353.5C657.333 349 650.5 371.167 672.167 371C682.833 371 693.833 366 702.167 360.833Z" fill="#FF8AC7"/>
<path d="M623.834 321.667C623.167 321.833 601.5 327 587.167 328C572.834 329 554.5 328.167 548.834 318.667C546.167 314.167 546.5 311.333 549.5 308.833C553 306 560.167 303.833 570.667 300.833C590.5 295.167 613.167 283.667 613.167 283.667C644 291.333 623.834 321.667 623.834 321.667Z" fill="#FF97C9"/>
<path d="M623.834 321.667C623.167 321.833 601.5 327 587.167 328C572.834 329 554.5 328.167 548.834 318.667C546.167 314.167 546.5 311.333 549.5 308.833C552.667 311.667 557.834 314.667 566 317.167C588.834 324.167 623.834 321.667 623.834 321.667Z" fill="#FF8AC7"/>
<path d="M583.833 330.667C578 330.667 572 330.5 566.5 329.833C549.5 328.167 545.5 318.333 544.667 315.833C544 314.833 543.667 313.5 544 312C544.833 308.333 549.333 305.167 557.5 302.333C573.167 296.833 583.5 293 596.167 287.833C609.667 282.167 613.833 282.333 614.5 282.5C615.833 282.667 616.833 283.833 616.667 285.333C616.5 286.667 615.333 287.667 613.833 287.5C613.833 287.5 610.167 287.5 598 292.5C585.333 297.833 574.833 301.5 559.167 307.167C549.5 310.5 548.833 313.167 548.833 313.333C549.167 313.667 549.333 314 549.333 314.333C549.333 314.667 551.667 323.5 566.833 325C584.167 326.667 605.5 325.5 615.5 322.5C624.5 319.667 626.833 314.833 628.167 306C628.333 304.667 629.667 303.667 631 303.833C632.333 304 633.333 305.333 633.167 306.667C631.667 316.833 628.333 323.667 617 327.333C609.833 329.333 597 330.667 583.833 330.667Z" fill="#F774B9"/>
<path d="M652.666 412C651.666 412 650.5 411.833 649.666 411.5C644.333 409.667 643 406.667 641.5 400.5C641.166 399 640.166 396.333 637.833 395.167C635.666 394.167 632.666 394.5 629.166 396.167C617 401.833 606.333 402.5 597.5 397.833C591.666 394.833 589.5 388.833 587.833 384.167C586.5 380.667 585.333 377.5 583.333 377C580.5 376.167 575.666 376.667 570.666 377C563.833 377.5 556.166 378.167 549.166 376.667C539.166 374.667 535.833 370.5 534.666 367.333C533.666 364.833 533.5 360.833 537.5 355.667C543.666 347.833 568.666 326.5 569.833 325.667C570.833 324.833 572.5 324.833 573.333 326C574.166 327 574.166 328.667 573 329.5C572.666 329.667 547.333 351.333 541.333 358.833C539.833 360.667 538.333 363.333 539.333 365.667C540.333 368.333 544.333 370.667 550.166 371.833C556.666 373.167 563.833 372.5 570.333 372C576.166 371.5 581.166 371.167 584.833 372.167C589.333 373.5 591 378 592.666 382.5C594.333 386.833 596 391.333 600 393.5C607.333 397.333 616.5 396.833 627.166 391.833C633.5 388.833 637.666 389.667 640.166 390.833C643.333 392.333 645.5 395.5 646.5 399.667C647.833 405.5 648.666 406.167 651.5 407C654.333 408 660.166 403.5 662.666 402C663.833 401.333 665.333 401.667 666.166 402.833C666.833 404 666.5 405.5 665.333 406.333C664.166 406.5 658.166 412 652.666 412Z" fill="#F774B9"/>
<path d="M593.333 293.833C593 293.833 592.833 293.833 592.5 293.667C591.166 293.167 590.5 291.833 590.833 290.5C590.833 290.333 595 277.5 597.5 265C599.666 254.167 604.166 234.667 611.333 225C619.833 213.333 636.166 210.333 636.833 210.167C638.166 209.833 639.5 210.5 640 211.833C640.333 213.167 639.666 214.5 638.333 215C638.166 215 622.833 217.833 615.333 228C608.5 237.167 604 257.667 602.5 266C600 278.833 595.833 292 595.833 292.167C595.333 293 594.333 293.833 593.333 293.833Z" fill="#F774B9"/>
<path d="M688.666 332.167C688 333.5 686.999 334.833 685.833 336C676.666 346.333 660.999 351.667 656.333 345C653.666 341.167 653.166 337.167 654.333 333.167C657.166 322.167 671.333 312 680.166 312.167C690.666 312.167 694.166 322.5 688.666 332.167Z" fill="#1C3177"/>
<path d="M688.666 332.167C688 333.5 686.999 334.833 685.833 336C676.666 346.333 660.999 351.667 656.333 345C653.666 341.167 653.166 337.167 654.333 333.167C662.833 327.333 686.5 327 688.666 332.167Z" fill="#F774B9"/>
<path d="M704.5 261C697.167 261 690 275.5 696.167 285.167C702.333 294.833 712.5 289.167 714.667 280.833C717.167 270.833 714.833 260.833 704.5 261Z" fill="white"/>
<path d="M700.667 273.667C696.333 273.167 692 280 695.5 285.333C699 290.667 705 288.5 706.333 284.333C708 279.5 706.833 274.167 700.667 273.667Z" fill="#1C3177"/>
<path d="M665.667 253.333C657.833 252.333 647.667 266.5 652.833 278C658 289.5 669.667 284.833 673.333 276.333C677.833 266 677 254.833 665.667 253.333Z" fill="white"/>
<path d="M656.834 266.5C652.5 266 648.167 272.833 651.667 278.167C655.167 283.5 661.167 281.333 662.5 277.167C664.167 272.333 663 267.167 656.834 266.5Z" fill="#1C3177"/>
</g>
<defs>
<clipPath id="clip0_102_15006">
<rect width="1000" height="1000" rx="50" fill="white"/>
</clipPath>
</defs>
</svg>
